<svg xmlns="http://www.w3.org/2000/svg" version="1.1" width="512" height="512" viewBox="0 0 512 512">
<!--    <rect width="512" height="512" />-->
    <path fill="#0d6efd" transform="scale(1.4), translate(-41, 3)" d="M193.855 44.683c1.378 0 2.494 1.116 2.495 2.494 0 1.378-1.116 2.494-2.495 2.495h-23.846l-17.167 17.167c-0.973 0.973-2.551 0.973-3.53 0-0.973-0.973-0.973-2.551 0-3.529l13.644-13.645h-40.378c-11.518 0-19.151 2.688-23.815 8.113-4.739 5.519-6.66 14.056-6.66 25.63 0 0.069 0 0.137-0.006 0.206l0.212 36.692 14.692-14.692c0.973-0.973 2.551-0.973 3.53 0 0.973 0.973 0.973 2.551 0 3.53l-18.178 18.178c0.206 35.832 0.193 71.358-0.013 107.19 25.486 25.2 50.617 50.312 75.811 75.791h25.38c1.378 0 2.494 1.116 2.495 2.495 0 1.378-1.116 2.494-2.495 2.494h-20.448l25.942 26.241 0.006-0.006c8.188 8.188 15.577 12.859 22.824 13.413 7.146 0.543 14.442-2.956 22.586-11.093l28.555-28.555h-20.722c-1.378 0-2.494-1.116-2.495-2.494 0-1.378 1.116-2.494 2.495-2.495h25.711l16.625-16.625c0.973-0.973 2.551-0.973 3.529 0 0.973 0.973 0.973 2.551 0 3.53l-13.101 13.102h40.377c11.518 0 19.151-2.688 23.815-8.113 4.739-5.519 6.66-14.056 6.66-25.63h0.013l-0.212-36.898-16.014 16.014c-0.973 0.973-2.551 0.973-3.53 0-0.973-0.973-0.973-2.551 0-3.53l19.5-19.5c-0.206-35.832-0.193-71.358 0.013-107.19-25.486-25.2-50.617-50.312-75.811-75.791h-26.147c-1.378 0-2.494-1.116-2.495-2.495 0-1.378 1.116-2.494 2.495-2.494h21.215l-25.824-26.123c-0.044-0.037-0.081-0.075-0.124-0.112-8.188-8.188-15.577-12.859-22.824-13.413-7.146-0.543-14.442 2.956-22.586 11.093l-28.555 28.555h18.858zM122.578 44.683h45.367l32.078-32.078c9.248-9.248 17.81-13.195 26.484-12.534 8.568 0.649 16.956 5.824 25.985 14.854 0.05 0.05 0.094 0.094 0.137 0.143l29.278 29.615h43.508c13.071 0 21.919 3.268 27.594 9.871 5.6 6.517 7.864 16.101 7.864 28.867 0 0.081-0.006 0.156-0.012 0.23l-0.225 39.742 28.43 28.112 0.006-0.006c9.03 9.03 14.206 17.411 14.854 25.985 0.661 8.674-3.293 17.236-12.534 26.484l-30.768 30.768 0.237 41.843h0.012c0 12.765-2.27 22.35-7.864 28.867-5.675 6.604-14.524 9.872-27.594 9.871h-45.366l-32.078 32.078c-9.248 9.248-17.81 13.195-26.484 12.534-8.568-0.649-16.956-5.824-25.985-14.854l0.006-0.006-29.421-29.758h-43.509c-13.071 0-21.919-3.268-27.594-9.872-5.6-6.517-7.864-16.101-7.863-28.866h0.012l0.231-39.972-28.293-27.969c-0.05-0.044-0.1-0.087-0.143-0.137-9.03-9.03-14.206-17.411-14.854-25.985-0.661-8.674 3.293-17.236 12.534-26.484l30.768-30.768-0.237-41.607c-0.006-0.075-0.012-0.156-0.012-0.23 0-12.765 2.27-22.35 7.864-28.867 5.675-6.604 14.524-9.872 27.594-9.871zM87.682 179.997l-0.274-47.724-27.276 27.276c-8.138 8.138-11.636 15.44-11.094 22.587 0.549 7.246 5.226 14.642 13.413 22.823 0.037 0.037 0.081 0.081 0.113 0.125l24.837 24.551 0.281-49.644zM92.303 241.483l-0.2 35.09h0.013c0 11.58 1.921 20.117 6.66 25.63 4.664 5.432 12.297 8.113 23.815 8.113h38.576l-33.55-33.936-35.308-34.903zM325.415 49.672h-38.575l33.549 33.936 35.308 34.902 0.2-34.884c-0.006-0.069-0.006-0.137-0.007-0.205 0-11.58-1.921-20.117-6.66-25.63-4.664-5.432-12.297-8.113-23.815-8.113zM360.599 130.352l-0.281 49.645 0.274 47.724 27.276-27.276c8.138-8.138 11.636-15.44 11.094-22.587-0.549-7.252-5.226-14.642-13.413-22.824l0.006-0.006-24.956-24.669z" />
    <path fill="#0d6efd" transform="scale(0.45), translate(275, 820)" d="M18.15-35Q24.75-35 29-32.33 33.25-29.65 33.35-24.4L33.35-24.4 33.35-23.8 23-23.8 23-24Q23-25.5 21.9-26.5 20.8-27.5 18.55-27.5L18.55-27.5Q16.35-27.5 15.18-26.85 14-26.2 14-25.25L14-25.25Q14-23.9 15.6-23.25 17.2-22.6 20.75-21.9L20.75-21.9Q24.9-21.05 27.58-20.13 30.25-19.2 32.25-17.1 34.25-15 34.3-11.4L34.3-11.4Q34.3-5.3 30.18-2.35 26.05 0.6 19.15 0.6L19.15 0.6Q11.1 0.6 6.63-2.1 2.15-4.8 2.15-11.65L2.15-11.65 12.6-11.65Q12.6-9.05 13.95-8.18 15.3-7.3 18.15-7.3L18.15-7.3Q20.25-7.3 21.63-7.75 23-8.2 23-9.6L23-9.6Q23-10.85 21.48-11.48 19.95-12.1 16.5-12.8L16.5-12.8Q12.3-13.7 9.55-14.68 6.8-15.65 4.75-17.9 2.7-20.15 2.7-24L2.7-24Q2.7-29.65 7.08-32.33 11.45-35 18.15-35L18.15-35ZM52.15-27Q58.2-27 62-24.98 65.8-22.95 65.8-18.4L65.8-18.4 65.8-8.1Q65.8-7.25 66.2-6.7 66.6-6.15 67.4-6.15L67.4-6.15 69.2-6.15 69.2-0.4Q69.05-0.3 68.42-0.08 67.8 0.15 66.65 0.38 65.5 0.6 64 0.6L64 0.6Q61.1 0.6 59.22-0.28 57.35-1.15 56.65-2.7L56.65-2.7Q54.75-1.2 52.4-0.3 50.05 0.6 46.9 0.6L46.9 0.6Q37.6 0.6 37.6-6.8L37.6-6.8Q37.6-10.65 39.67-12.68 41.75-14.7 45.65-15.45 49.55-16.2 55.85-16.2L55.85-16.2 55.85-17.5Q55.85-19.05 54.77-19.85 53.7-20.65 52-20.65L52-20.65Q50.45-20.65 49.32-20.1 48.2-19.55 48.2-18.35L48.2-18.35 48.2-18.15 38.4-18.15Q38.35-18.4 38.35-18.85L38.35-18.85Q38.35-22.6 41.92-24.8 45.5-27 52.15-27L52.15-27ZM55.85-11.5Q51.6-11.5 49.57-10.58 47.55-9.65 47.55-8.1L47.55-8.1Q47.55-5.6 50.95-5.6L50.95-5.6Q52.9-5.6 54.37-6.65 55.85-7.7 55.85-9.25L55.85-9.25 55.85-11.5ZM90.6-0.8Q88.55 4.75 85.57 7.63 82.6 10.5 77.25 10.5L77.25 10.5Q74 10.5 71.5 9.6L71.5 9.6 71.5 3.65 75.5 3.65Q79.25 3.65 79.95 0L79.95 0 69.45-26.4 80.15-26.4 85.2-8.85 85.55-8.85 90.2-26.4 100-26.4 90.6-0.8ZM154.59 0L144.94 0 130.49-16.7 130.49 0 120.34 0 120.34-34.4 129.99-34.4 144.44-17.45 144.44-34.4 154.59-34.4 154.59 0ZM174.94-27Q181.89-27 185.86-23.48 189.84-19.95 189.84-13.2L189.84-13.2Q189.84-6.45 185.86-2.93 181.89 0.6 174.94 0.6L174.94 0.6Q167.99 0.6 164.04-2.9 160.09-6.4 160.09-13.2L160.09-13.2Q160.09-20 164.04-23.5 167.99-27 174.94-27L174.94-27ZM174.94-20.25Q170.04-20.25 170.04-14.6L170.04-14.6 170.04-11.75Q170.04-6.15 174.94-6.15L174.94-6.15Q179.89-6.15 179.89-11.75L179.89-11.75 179.89-14.6Q179.89-20.25 174.94-20.25L174.94-20.25ZM243.03-25.6L231.78-25.6 231.78 0 220.73 0 220.73-25.6 209.43-25.6 209.43-34.4 243.03-34.4 243.03-25.6ZM257.63-27Q264.58-27 268.56-23.48 272.53-19.95 272.53-13.2L272.53-13.2Q272.53-6.45 268.56-2.93 264.58 0.6 257.63 0.6L257.63 0.6Q250.68 0.6 246.73-2.9 242.78-6.4 242.78-13.2L242.78-13.2Q242.78-20 246.73-23.5 250.68-27 257.63-27L257.63-27ZM257.63-20.25Q252.73-20.25 252.73-14.6L252.73-14.6 252.73-11.75Q252.73-6.15 257.63-6.15L257.63-6.15Q262.58-6.15 262.58-11.75L262.58-11.75 262.58-14.6Q262.58-20.25 257.63-20.25L257.63-20.25ZM311.08-35Q318.73-35 323.18-31.18 327.63-27.35 327.63-20.25L327.63-20.25 317.08-20.25Q317.08-23.25 315.5-25 313.93-26.75 311.03-26.75L311.03-26.75Q307.68-26.75 306.1-24.65 304.53-22.55 304.53-18.8L304.53-18.8 304.53-15.6Q304.53-11.9 306.1-9.78 307.68-7.65 310.93-7.65L310.93-7.65Q314.13-7.65 315.78-9.3 317.43-10.95 317.43-13.95L317.43-13.95 327.63-13.95Q327.63-6.9 323.3-3.15 318.98 0.6 311.08 0.6L311.08 0.6Q302.28 0.6 297.75-3.9 293.23-8.4 293.23-17.2L293.23-17.2Q293.23-26 297.75-30.5 302.28-35 311.08-35L311.08-35ZM346.52-27Q353.47-27 357.45-23.48 361.42-19.95 361.42-13.2L361.42-13.2Q361.42-6.45 357.45-2.93 353.47 0.6 346.52 0.6L346.52 0.6Q339.57 0.6 335.62-2.9 331.67-6.4 331.67-13.2L331.67-13.2Q331.67-20 335.62-23.5 339.57-27 346.52-27L346.52-27ZM346.52-20.25Q341.62-20.25 341.62-14.6L341.62-14.6 341.62-11.75Q341.62-6.15 346.52-6.15L346.52-6.15Q351.47-6.15 351.47-11.75L351.47-11.75 351.47-14.6Q351.47-20.25 346.52-20.25L346.52-20.25ZM382.27-27.05Q383.42-27.05 384.32-26.78 385.22-26.5 385.22-26.45L385.22-26.45 385.22-18.1 382.02-18.1Q378.92-18.1 377.55-16.5 376.17-14.9 376.17-11.75L376.17-11.75 376.17 0 366.22 0 366.22-26.4 374.37-26.4 375.02-22.4Q375.92-24.7 377.87-25.88 379.82-27.05 382.27-27.05L382.27-27.05ZM406.57-27.05Q407.72-27.05 408.62-26.78 409.52-26.5 409.52-26.45L409.52-26.45 409.52-18.1 406.32-18.1Q403.22-18.1 401.84-16.5 400.47-14.9 400.47-11.75L400.47-11.75 400.47 0 390.52 0 390.52-26.4 398.67-26.4 399.32-22.4Q400.22-24.7 402.17-25.88 404.12-27.05 406.57-27.05L406.57-27.05ZM441.67 0L433.51 0 432.87-4Q431.31-1.85 428.79-0.63 426.26 0.6 423.47 0.6L423.47 0.6Q418.87 0.6 416.56-1.95 414.26-4.5 414.26-9.3L414.26-9.3 414.26-26.4 424.22-26.4 424.22-10.5Q424.22-8.8 425.09-7.78 425.97-6.75 427.56-6.75L427.56-6.75Q429.42-6.75 430.56-7.95 431.72-9.15 431.72-10.9L431.72-10.9 431.72-26.4 441.67-26.4 441.67 0ZM465.11-27Q470.46-27 473.36-23.5 476.26-20 476.26-13.15L476.26-13.15Q476.26-6.35 473.36-2.88 470.46 0.6 465.11 0.6L465.11 0.6Q460.51 0.6 457.71-2.4L457.71-2.4 457.71 9.85 447.76 9.85 447.76-26.4 455.86-26.4 456.71-22.65Q459.61-27 465.11-27L465.11-27ZM462.01-19.65Q459.81-19.65 458.71-18.1 457.61-16.55 457.61-14.05L457.61-14.05 457.61-12.4Q457.61-9.9 458.71-8.33 459.81-6.75 462.01-6.75L462.01-6.75Q466.31-6.75 466.31-11.9L466.31-11.9 466.31-14.55Q466.31-19.65 462.01-19.65L462.01-19.65ZM493.06-26.4L498.66-26.4 498.66-19.65 493.06-19.65 493.06-9.6Q493.06-7.8 493.66-6.98 494.26-6.15 495.86-6.15L495.86-6.15 498.66-6.15 498.66-0.3Q497.46 0.1 495.56 0.35 493.66 0.6 492.26 0.6L492.26 0.6Q487.86 0.6 485.49-1 483.11-2.6 483.11-6.45L483.11-6.45 483.11-19.65 479.41-19.65 479.41-26.4 483.51-26.4 485.66-34.4 493.06-34.4 493.06-26.4ZM513.56-29.5L503.61-29.5 503.61-36.25 513.56-36.25 513.56-29.5ZM513.56 0L503.61 0 503.61-26.4 513.56-26.4 513.56 0ZM533.55-27Q540.5-27 544.48-23.48 548.45-19.95 548.45-13.2L548.45-13.2Q548.45-6.45 544.48-2.93 540.5 0.6 533.55 0.6L533.55 0.6Q526.61 0.6 522.65-2.9 518.7-6.4 518.7-13.2L518.7-13.2Q518.7-20 522.65-23.5 526.61-27 533.55-27L533.55-27ZM533.55-20.25Q528.65-20.25 528.65-14.6L528.65-14.6 528.65-11.75Q528.65-6.15 533.55-6.15L533.55-6.15Q538.5-6.15 538.5-11.75L538.5-11.75 538.5-14.6Q538.5-20.25 533.55-20.25L533.55-20.25ZM571.45-27Q576.05-27 578.35-24.45 580.65-21.9 580.65-17.1L580.65-17.1 580.65 0 570.7 0 570.7-15.9Q570.7-17.6 569.83-18.63 568.95-19.65 567.35-19.65L567.35-19.65Q565.5-19.65 564.35-18.45 563.2-17.25 563.2-15.5L563.2-15.5 563.2 0 553.25 0 553.25-26.4 561.4-26.4 562.05-22.4Q563.6-24.5 566.13-25.75 568.65-27 571.45-27L571.45-27Z" />
    <rect fill="#0d6efd" width="336" height="171" x="88" y="170.5" />
    <path fill="#fff" transform="scale(3), translate(42, 102)" d="M5 0L1.2 0 10.7-34.6 19.1-34.6 28.6 0 24.8 0 22.3-8.9 7.5-8.9 5 0ZM16.2-31.3L13.6-31.3 8.35-12.35 21.45-12.35 16.2-31.3ZM54.2-3.85L54.35-0.55Q49.2 0.5 45.1 0.5 41 0.5 38.47-0.63 35.95-1.75 34.57-4.13 33.2-6.5 32.67-9.58 32.15-12.65 32.15-17.25 32.15-21.85 32.67-24.98 33.2-28.1 34.57-30.5 35.95-32.9 38.45-34 40.95-35.1 44.95-35.1 48.95-35.1 54.35-34L54.35-34 54.2-30.75Q49.15-31.65 45.2-31.65L45.2-31.65Q39.7-31.65 37.92-28.38 36.15-25.1 36.15-17.2L36.15-17.2Q36.15-13.25 36.47-10.85 36.8-8.45 37.75-6.53 38.7-4.6 40.52-3.78 42.35-2.95 45.87-2.95 49.4-2.95 54.2-3.85L54.2-3.85ZM73 0L73 0 60.65 0 60.65-34.6 73-34.6Q81.45-34.6 84.2-27.9L84.2-27.9Q85.8-24.05 85.8-17.8L85.8-17.8Q85.8-4.75 79.3-1.35L79.3-1.35Q76.7 0 73 0ZM81.84-17.8L81.84-17.8Q81.84-27.75 77.4-30.2L77.4-30.2Q75.59-31.2 73-31.2L73-31.2 64.5-31.2 64.5-3.4 73-3.4Q81.84-3.4 81.84-17.8Z" />
</svg>